<svg width="16" height="16" viewBox="0 0 16 16" fill="none" xmlns="http://www.w3.org/2000/svg">
<path fill-rule="evenodd" clip-rule="evenodd" d="M8.00004 6.20711L8.35359 5.85355L10.3536 3.85355L9.64648 3.14645L8.50004 4.29289V0H7.50004V4.29289L6.35359 3.14645L5.64648 3.85355L7.64648 5.85355L8.00004 6.20711ZM8.00004 9.79289L8.35359 10.1464L10.3536 12.1464L9.64648 12.8536L8.50004 11.7071V16H7.50004V11.7071L6.35359 12.8536L5.64648 12.1464L7.64648 10.1464L8.00004 9.79289ZM10.1464 7.64645L9.79289 8L10.1464 8.35355L12.1464 10.3536L12.8536 9.64645L11.7071 8.5H16V7.5L11.7071 7.5L12.8536 6.35355L12.1464 5.64645L10.1464 7.64645ZM6.20711 8L5.85355 7.64645L3.85355 5.64645L3.14645 6.35355L4.29289 7.5L0 7.5V8.5H4.29289L3.14645 9.64645L3.85355 10.3536L5.85355 8.35355L6.20711 8ZM1 0.5H0.5V1V4.88889H1.5V1.5H4.88889V0.5H1ZM15 0.5H11.1111V1.5H14.5V4.88889H15.5V1V0.5H15ZM1.5 11.1111V14.5H4.88889V15.5H1H0.5V15V11.1111H1.5ZM15.5 15V11.1111H14.5V14.5H11.1111V15.5H15H15.5V15Z" fill="black"/>
</svg>
